# Created by Kenney (www.kenney.nl)

mtllib FlowerOBJ.mtl

v 0 7 -0.5
v 0 6 -0.5
v 0 7 0.5
v 0 6 0.5
v -2 7 -0.5
v -2 7 0.5
v -2 6 0.5
v -2 6 -0.5
v -1 7 -0.5
v -1 7 0.5
v -1 6 0.5
v -1 6 -0.5
v 1 6 -0.5
v 1 5 -0.5
v 1 6 0.5
v 1 5 0.5
v 0 5 0.5
v 0 5 -0.5
v -2 5 -0.5
v -2 5 0.5
v -3 6 -0.5
v -3 6 0.5
v -3 5 0.5
v -3 5 -0.5
v 2 5 -0.5
v 2 3 -0.5
v 2 5 0.5
v 2 3 0.5
v 1 3 0.5
v 1 3 -0.5
v -1 5 -0.5
v -1 4 -0.5
v -1 5 0.5
v -1 4 0.5
v -2 4 0.5
v -2 4 -0.5
v -2 5 -1.5
v -2 3 -1.5
v -2 5 1.5
v -2 3 1.5
v -3 5 -1.5
v -3 5 1.5
v -3 3 1.5
v -3 3 -1.5
v -3 4 -0.5
v -3 4 0.5
v -4 5 -0.5
v -4 5 0.5
v -4 4 0.5
v -4 4 -0.5
v -1 4 -1.5
v -1 2 -1.5
v -1 4 1.5
v -1 2 1.5
v -2 4 -1.5
v -2 4 1.5
v -2 2 1.5
v -2 2 -1.5
v -3 4 -1.5
v -3 2 -1.5
v -3 4 1.5
v -3 2 1.5
v -4 4 -1.5
v -4 4 1.5
v -4 2 1.5
v -4 2 -1.5
v 3 3 -0.5
v 3 -1 -0.5
v 3 3 0.5
v 3 -1 0.5
v 2 -1 0.5
v 2 -1 -0.5
v 1 2 -0.5
v 1 2 0.5
v 0 3 -0.5
v 0 3 0.5
v 0 2 0.5
v 0 2 -0.5
v -2 3 -2.5
v -2 2 -2.5
v -2 3 2.5
v -2 2 2.5
v -3 3 -2.5
v -3 3 2.5
v -3 2 2.5
v -3 2 -2.5
v -5 3 -0.5
v -5 2 -0.5
v -5 3 0.5
v -5 2 0.5
v -6 3 -0.5
v -6 3 0.5
v -6 2 0.5
v -6 2 -0.5
v 0 2 -1.5
v 0 1 -1.5
v 0 2 1.5
v 0 1 1.5
v -1 1 1.5
v -1 1 -1.5
v -2 2 -0.5
v -2 1 -0.5
v -2 2 0.5
v -2 1 0.5
v -3 2 -0.5
v -3 2 0.5
v -3 1 0.5
v -3 1 -0.5
v -4 1 -1.5
v -4 1 1.5
v -5 2 -1.5
v -5 2 1.5
v -5 1 1.5
v -5 1 -1.5
v 4 -1 -0.5
v 4 -4 -0.5
v 4 -1 0.5
v 4 -4 0.5
v 3 -4 0.5
v 3 -4 -0.5
v 5 -4 -0.5
v 5 -8 -0.5
v 5 -4 0.5
v 5 -8 0.5
v 4 -8 0.5
v 4 -8 -0.5

vn 1 0 0
vn 0 1 0
vn 0 -1 0
vn -1 0 0
vn 0 0 -1
vn 0 0 1

vt 0.9375 0.0625
vt 0.6875 0.1875
vt 0.6875 0.0625

usemtl FlowerOBJ

f 3/1/1 2/1/1 1/1/1
f 2/1/1 3/1/1 4/1/1
f 5/1/2 3/1/2 1/1/2
f 3/1/2 5/1/2 6/1/2
f 7/1/3 2/1/3 4/1/3
f 2/1/3 7/1/3 8/1/3
f 7/1/4 5/1/4 8/1/4
f 5/1/4 7/1/4 6/1/4
f 5/1/5 2/1/5 8/1/5
f 2/1/5 5/1/5 1/1/5
f 3/1/6 7/1/6 4/1/6
f 7/1/6 3/1/6 6/1/6
f 3/1/1 2/1/1 1/1/1
f 2/1/1 3/1/1 4/1/1
f 9/1/2 3/1/2 1/1/2
f 3/1/2 9/1/2 10/1/2
f 11/1/3 2/1/3 4/1/3
f 2/1/3 11/1/3 12/1/3
f 11/1/4 9/1/4 12/1/4
f 9/1/4 11/1/4 10/1/4
f 9/1/5 2/1/5 12/1/5
f 2/1/5 9/1/5 1/1/5
f 3/1/6 11/1/6 4/1/6
f 11/1/6 3/1/6 10/1/6
f 15/1/1 14/1/1 13/1/1
f 14/1/1 15/1/1 16/1/1
f 2/1/2 15/1/2 13/1/2
f 15/1/2 2/1/2 4/1/2
f 17/1/3 14/1/3 16/1/3
f 14/1/3 17/1/3 18/1/3
f 17/1/4 2/1/4 18/1/4
f 2/1/4 17/1/4 4/1/4
f 2/1/5 14/1/5 18/1/5
f 14/1/5 2/1/5 13/1/5
f 15/1/6 17/1/6 16/1/6
f 17/1/6 15/1/6 4/1/6
f 7/1/1 19/1/1 8/1/1
f 19/1/1 7/1/1 20/1/1
f 21/1/2 7/1/2 8/1/2
f 7/1/2 21/1/2 22/1/2
f 23/1/3 19/1/3 20/1/3
f 19/1/3 23/1/3 24/1/3
f 23/1/4 21/1/4 24/1/4
f 21/1/4 23/1/4 22/1/4
f 21/1/5 19/1/5 24/1/5
f 19/1/5 21/1/5 8/1/5
f 7/1/6 23/1/6 20/1/6
f 23/1/6 7/1/6 22/1/6
f 27/1/1 26/1/1 25/1/1
f 26/1/1 27/1/1 28/1/1
f 14/1/2 27/1/2 25/1/2
f 27/1/2 14/1/2 16/1/2
f 29/1/3 26/1/3 28/1/3
f 26/1/3 29/1/3 30/1/3
f 29/1/4 14/1/4 30/1/4
f 14/1/4 29/1/4 16/1/4
f 14/1/5 26/1/5 30/1/5
f 26/1/5 14/1/5 25/1/5
f 27/1/6 29/1/6 28/1/6
f 29/1/6 27/1/6 16/1/6
f 33/2/1 32/2/1 31/2/1
f 32/2/1 33/2/1 34/2/1
f 19/2/2 33/2/2 31/2/2
f 33/2/2 19/2/2 20/2/2
f 35/2/3 32/2/3 34/2/3
f 32/2/3 35/2/3 36/2/3
f 35/2/4 19/2/4 36/2/4
f 19/2/4 35/2/4 20/2/4
f 19/2/5 32/2/5 36/2/5
f 32/2/5 19/2/5 31/2/5
f 33/2/6 35/2/6 34/2/6
f 35/2/6 33/2/6 20/2/6
f 39/2/1 38/2/1 37/2/1
f 38/2/1 39/2/1 40/2/1
f 41/2/2 39/2/2 37/2/2
f 39/2/2 41/2/2 42/2/2
f 43/2/3 38/2/3 40/2/3
f 38/2/3 43/2/3 44/2/3
f 43/2/4 41/2/4 44/2/4
f 41/2/4 43/2/4 42/2/4
f 41/2/5 38/2/5 44/2/5
f 38/2/5 41/2/5 37/2/5
f 39/2/6 43/2/6 40/2/6
f 43/2/6 39/2/6 42/2/6
f 23/2/1 45/2/1 24/2/1
f 45/2/1 23/2/1 46/2/1
f 47/2/2 23/2/2 24/2/2
f 23/2/2 47/2/2 48/2/2
f 49/2/3 45/2/3 46/2/3
f 45/2/3 49/2/3 50/2/3
f 49/2/4 47/2/4 50/2/4
f 47/2/4 49/2/4 48/2/4
f 47/2/5 45/2/5 50/2/5
f 45/2/5 47/2/5 24/2/5
f 23/2/6 49/2/6 46/2/6
f 49/2/6 23/2/6 48/2/6
f 53/2/1 52/2/1 51/2/1
f 52/2/1 53/2/1 54/2/1
f 55/2/2 53/2/2 51/2/2
f 53/2/2 55/2/2 56/2/2
f 57/2/3 52/2/3 54/2/3
f 52/2/3 57/2/3 58/2/3
f 57/2/4 55/2/4 58/2/4
f 55/2/4 57/2/4 56/2/4
f 55/2/5 52/2/5 58/2/5
f 52/2/5 55/2/5 51/2/5
f 53/2/6 57/2/6 54/2/6
f 57/2/6 53/2/6 56/2/6
f 61/2/1 60/2/1 59/2/1
f 60/2/1 61/2/1 62/2/1
f 63/2/2 61/2/2 59/2/2
f 61/2/2 63/2/2 64/2/2
f 65/2/3 60/2/3 62/2/3
f 60/2/3 65/2/3 66/2/3
f 65/2/4 63/2/4 66/2/4
f 63/2/4 65/2/4 64/2/4
f 63/2/5 60/2/5 66/2/5
f 60/2/5 63/2/5 59/2/5
f 61/2/6 65/2/6 62/2/6
f 65/2/6 61/2/6 64/2/6
f 69/1/1 68/1/1 67/1/1
f 68/1/1 69/1/1 70/1/1
f 26/1/2 69/1/2 67/1/2
f 69/1/2 26/1/2 28/1/2
f 71/1/3 68/1/3 70/1/3
f 68/1/3 71/1/3 72/1/3
f 71/1/4 26/1/4 72/1/4
f 26/1/4 71/1/4 28/1/4
f 26/1/5 68/1/5 72/1/5
f 68/1/5 26/1/5 67/1/5
f 69/1/6 71/1/6 70/1/6
f 71/1/6 69/1/6 28/1/6
f 29/2/1 73/2/1 30/2/1
f 73/2/1 29/2/1 74/2/1
f 75/2/2 29/2/2 30/2/2
f 29/2/2 75/2/2 76/2/2
f 77/2/3 73/2/3 74/2/3
f 73/2/3 77/2/3 78/2/3
f 77/2/4 75/2/4 78/2/4
f 75/2/4 77/2/4 76/2/4
f 75/2/5 73/2/5 78/2/5
f 73/2/5 75/2/5 30/2/5
f 29/2/6 77/2/6 74/2/6
f 77/2/6 29/2/6 76/2/6
f 81/2/1 80/2/1 79/2/1
f 80/2/1 81/2/1 82/2/1
f 83/2/2 81/2/2 79/2/2
f 81/2/2 83/2/2 84/2/2
f 85/2/3 80/2/3 82/2/3
f 80/2/3 85/2/3 86/2/3
f 85/2/4 83/2/4 86/2/4
f 83/2/4 85/2/4 84/2/4
f 83/2/5 80/2/5 86/2/5
f 80/2/5 83/2/5 79/2/5
f 81/2/6 85/2/6 82/2/6
f 85/2/6 81/2/6 84/2/6
f 89/2/1 88/2/1 87/2/1
f 88/2/1 89/2/1 90/2/1
f 91/2/2 89/2/2 87/2/2
f 89/2/2 91/2/2 92/2/2
f 93/2/3 88/2/3 90/2/3
f 88/2/3 93/2/3 94/2/3
f 93/2/4 91/2/4 94/2/4
f 91/2/4 93/2/4 92/2/4
f 91/2/5 88/2/5 94/2/5
f 88/2/5 91/2/5 87/2/5
f 89/2/6 93/2/6 90/2/6
f 93/2/6 89/2/6 92/2/6
f 97/2/1 96/2/1 95/2/1
f 96/2/1 97/2/1 98/2/1
f 52/2/2 97/2/2 95/2/2
f 97/2/2 52/2/2 54/2/2
f 99/2/3 96/2/3 98/2/3
f 96/2/3 99/2/3 100/2/3
f 99/2/4 52/2/4 100/2/4
f 52/2/4 99/2/4 54/2/4
f 52/2/5 96/2/5 100/2/5
f 96/2/5 52/2/5 95/2/5
f 97/2/6 99/2/6 98/2/6
f 99/2/6 97/2/6 54/2/6
f 103/3/1 102/3/1 101/3/1
f 102/3/1 103/3/1 104/3/1
f 105/3/2 103/3/2 101/3/2
f 103/3/2 105/3/2 106/3/2
f 107/3/3 102/3/3 104/3/3
f 102/3/3 107/3/3 108/3/3
f 107/3/4 105/3/4 108/3/4
f 105/3/4 107/3/4 106/3/4
f 105/3/5 102/3/5 108/3/5
f 102/3/5 105/3/5 101/3/5
f 103/3/6 107/3/6 104/3/6
f 107/3/6 103/3/6 106/3/6
f 65/2/1 109/2/1 66/2/1
f 109/2/1 65/2/1 110/2/1
f 111/2/2 65/2/2 66/2/2
f 65/2/2 111/2/2 112/2/2
f 113/2/3 109/2/3 110/2/3
f 109/2/3 113/2/3 114/2/3
f 113/2/4 111/2/4 114/2/4
f 111/2/4 113/2/4 112/2/4
f 111/2/5 109/2/5 114/2/5
f 109/2/5 111/2/5 66/2/5
f 65/2/6 113/2/6 110/2/6
f 113/2/6 65/2/6 112/2/6
f 117/1/1 116/1/1 115/1/1
f 116/1/1 117/1/1 118/1/1
f 68/1/2 117/1/2 115/1/2
f 117/1/2 68/1/2 70/1/2
f 119/1/3 116/1/3 118/1/3
f 116/1/3 119/1/3 120/1/3
f 119/1/4 68/1/4 120/1/4
f 68/1/4 119/1/4 70/1/4
f 68/1/5 116/1/5 120/1/5
f 116/1/5 68/1/5 115/1/5
f 117/1/6 119/1/6 118/1/6
f 119/1/6 117/1/6 70/1/6
f 123/1/1 122/1/1 121/1/1
f 122/1/1 123/1/1 124/1/1
f 116/1/2 123/1/2 121/1/2
f 123/1/2 116/1/2 118/1/2
f 125/1/3 122/1/3 124/1/3
f 122/1/3 125/1/3 126/1/3
f 125/1/4 116/1/4 126/1/4
f 116/1/4 125/1/4 118/1/4
f 116/1/5 122/1/5 126/1/5
f 122/1/5 116/1/5 121/1/5
f 123/1/6 125/1/6 124/1/6
f 125/1/6 123/1/6 118/1/6

